<svg width="2052" height="508" viewBox="0 0 2052 508" fill="none" xmlns="http://www.w3.org/2000/svg"><g clip-path="url(#a)" fill-rule="evenodd" clip-rule="evenodd"><path d="M947.69 432.464a102.436 102.436 0 0 1-41.331-7.436c-13.143-5.311-25.093-13.291-35.128-23.459-10.034-10.168-17.944-22.311-23.25-35.693a108.731 108.731 0 0 1-7.618-42.162 108.726 108.726 0 0 1 7.618-42.161c5.306-13.382 13.216-25.525 23.25-35.693 10.035-10.168 21.985-18.148 35.128-23.459a102.47 102.47 0 0 1 41.331-7.436c18.137-.173 35.99 4.576 51.741 13.761 15.339 8.749 28.059 21.588 36.799 37.146l-23.87 14.097c-5.92-11.729-15.059-21.447-26.286-27.971-11.65-6.859-24.883-10.413-38.33-10.294a76.204 76.204 0 0 0-31.356 5.471c-9.971 4.015-19.02 10.095-26.578 17.857a80.359 80.359 0 0 0-17.032 26.897 81.693 81.693 0 0 0-5.364 31.561 80.562 80.562 0 0 0 5.453 31.71 79.201 79.201 0 0 0 17.378 26.859 77.243 77.243 0 0 0 26.419 17.55 75.905 75.905 0 0 0 31.08 5.332c13.447.12 26.68-3.434 38.33-10.293 11.149-6.384 20.266-15.896 26.286-27.411l23.71 13.761c-8.63 15.634-21.31 28.542-36.639 37.314-15.78 9.275-33.697 14.083-51.905 13.929l.164.223zm134-66.794c1.97 12.336 8.42 23.459 18.06 31.16 10.13 7.645 22.47 11.586 35.05 11.188 19.33 0 33.4-7.328 42.22-21.873l21.9 12.587c-14.23 22.377-35.74 33.564-64.51 33.564a75.164 75.164 0 0 1-30.62-5.195c-9.76-3.849-18.64-9.695-26.11-17.181-7.23-7.393-12.9-16.219-16.67-25.936a78.294 78.294 0 0 1-5.23-30.565 79.265 79.265 0 0 1 5.11-30.385 77.934 77.934 0 0 1 16.3-25.948 73.856 73.856 0 0 1 25.41-17.14 72.584 72.584 0 0 1 30.01-5.236c9.9-.323 19.75 1.59 28.85 5.603 9.1 4.014 17.21 10.028 23.78 17.612 13.53 15.308 20.84 35.317 20.42 55.942a78.913 78.913 0 0 1-.93 11.692l-123.04.111zm50.75-66.234c-12.25-.594-24.28 3.547-33.69 11.601-9.4 8.054-15.5 19.431-17.06 31.866h97.96c-1.27-12.532-7.14-24.106-16.43-32.391-8.62-7.374-19.53-11.344-30.78-11.188v.112zm183.28-24.558a68.938 68.938 0 0 1 28.64 5.766c9.05 3.951 17.18 9.801 23.87 17.17 13.98 15.128 21.77 35.141 21.77 55.941 0 20.8-7.79 40.813-21.77 55.941-6.7 7.358-14.83 13.2-23.88 17.151a69.1 69.1 0 0 1-28.63 5.785 61.168 61.168 0 0 1-31.62-7.198c-9.73-5.208-17.94-12.953-23.79-22.45v85.477h-25.52V278.738h25.52v25.788c5.85-9.497 14.06-17.242 23.79-22.45a61.168 61.168 0 0 1 31.62-7.198zm-3.23 132.413c6.87.162 13.7-1.125 20.06-3.782a49.77 49.77 0 0 0 16.9-11.658c9.6-10.306 14.94-23.985 14.94-38.208 0-14.223-5.34-27.902-14.94-38.207-9.93-9.866-23.24-15.386-37.1-15.386-13.85 0-27.16 5.52-37.1 15.386-9.6 10.305-14.94 23.984-14.94 38.207 0 14.223 5.34 27.902 14.94 38.208a50.355 50.355 0 0 0 17.04 11.687 49.387 49.387 0 0 0 20.2 3.753zm205.62-55.942c6.94 2.51 12.89 7.255 16.95 13.521 4.08 6.266 6.04 13.713 5.61 21.219.19 5.661-.8 11.298-2.9 16.543a40.308 40.308 0 0 1-9.25 13.889c-9.62 8.492-22.1 12.792-34.78 11.971h-73.33V278.738h67.47c12.32-.831 24.48 3.171 34 11.188 4 3.734 7.13 8.311 9.21 13.412a38.654 38.654 0 0 1 2.84 16.125c.38 6.296-.89 12.58-3.68 18.211a35.255 35.255 0 0 1-12.14 13.843v-.168zm-31.38-49.451h-41.4v39.159h41.4c14.83 0 22.25-6.695 22.29-20.083 0-12.83-7.43-19.226-22.29-19.189v.113zm5.47 102.763a25.025 25.025 0 0 0 17.2-5.594 19.373 19.373 0 0 0 4.65-6.955 19.82 19.82 0 0 0 1.32-8.316c.15-2.728-.32-5.454-1.35-7.974a17.984 17.984 0 0 0-4.62-6.571 25.295 25.295 0 0 0-17.2-5.258h-46.92v40.444l46.92.224zm182.73-125.923h20.48v149.754h-25.19V323.379l-81.47 105.113h-20.54V278.738h25.25v105.001l81.47-105.001zm128.14 153.726a74.007 74.007 0 0 1-29.81-5.5 75.231 75.231 0 0 1-25.28-17.04 77.198 77.198 0 0 1-16.68-25.83 78.363 78.363 0 0 1-5.38-30.451 78.468 78.468 0 0 1 5.39-30.434 77.305 77.305 0 0 1 16.69-25.81 75.307 75.307 0 0 1 25.27-17.025 74.007 74.007 0 0 1 29.8-5.496c13.71-.219 27.21 3.461 38.99 10.629 11.19 6.712 20.18 16.659 25.85 28.585l-21.42 12.587c-3.76-7.973-9.74-14.631-17.19-19.132-9.93-5.863-21.46-8.251-32.84-6.796-11.38 1.454-21.98 6.67-30.19 14.852-9.53 10.216-14.85 23.788-14.85 37.9 0 14.113 5.32 27.685 14.85 37.9a49.593 49.593 0 0 0 16.84 11.558 48.712 48.712 0 0 0 19.96 3.714c9.26.132 18.38-2.303 26.4-7.048 7.63-4.453 13.84-11.056 17.9-19.02l21.9 12.922c-6.29 11.787-15.62 21.579-26.99 28.306-11.82 7.096-25.29 10.771-38.99 10.629h-.22zm153.33-99.799c13.26-.358 26.16 4.417 36.13 13.37a47.849 47.849 0 0 1 10.74 15.777 48.765 48.765 0 0 1 0 37.645 47.838 47.838 0 0 1-10.74 15.777c-10.01 8.958-22.99 13.696-36.3 13.258h-61.88V278.738h25.52v53.927h36.53zm70.09-53.927H2052v149.754h-25.51V278.738zM1956.4 404.27c6.67.214 13.2-2.074 18.34-6.434a21.345 21.345 0 0 0 5.69-7.725 21.653 21.653 0 0 0 1.75-9.504c.12-3.277-.49-6.539-1.78-9.542a21.726 21.726 0 0 0-5.66-7.8c-5.1-4.452-11.64-6.805-18.34-6.601h-36.36v47.606h36.36z" fill="#000"/><path d="M42.417 146.538H752.4v318.96a42.543 42.543 0 0 1-12.423 30.053A42.375 42.375 0 0 1 709.983 508H42.417a42.373 42.373 0 0 1-29.993-12.449A42.545 42.545 0 0 1 0 465.498V189.04a42.547 42.547 0 0 1 12.424-30.053 42.377 42.377 0 0 1 29.993-12.449z" fill="#ED332D"/><path d="M844.005 109.01C858.623 89.536 865.654 55.96 854.271 0c-143.619 22.384-112.82 100.224-99.094 124.567a497.716 497.716 0 0 1 74.321-90.207 550.057 550.057 0 0 0-49.436 87.913c19.362-22.385 42.071-23.56 63.943-13.263zm45.195 45.663c-62.939 71.182-96.695 31.785-109.249 10.409a166.936 166.936 0 0 1 60.707-8.394 186.277 186.277 0 0 0-64.222-8.115c7.644-18.41 39.113-72.747 112.764 6.1z" fill="#A6CD33"/><path d="M429.898 224.692h18.786v18.735h-18.786v-18.735zM160.852 342.074l46.661-117.382h31.033l-71.709 168.502c-10.528 24.703-24.328 35.645-49.874 36.64a104.263 104.263 0 0 1-38.792-6.853v-23.597c24.217 7.074 27.376 7.902 36.021 7.736 11.804 0 21.778-6.299 33.25-32.716L78.338 224.692h29.98l52.534 117.382zm203.434 87.76h-25.88v-54.546a136.35 136.35 0 0 1-34.857 4.476c-36.297 0-57.854-18.679-58.186-55.596v-44.654h25.768v45.705c0 22.437 11.084 32.219 32.418 32.219a136.396 136.396 0 0 0 34.857-4.477v-73.447h25.88v150.32zm103.074 0c-48.323 0-71.709-31.611-71.709-75.657 0-38.686 24.992-74.551 68.383-74.551 54.087 0 64.339 39.403 64.339 82.233H419.48a46.663 46.663 0 0 0 3.686 18.375 46.738 46.738 0 0 0 10.626 15.455 46.892 46.892 0 0 0 15.857 10.054 47.029 47.029 0 0 0 18.542 3.036 51.345 51.345 0 0 0 23.141-4.435 51.197 51.197 0 0 0 18.698-14.301l16.626 11.772c-13.3 18.679-33.066 28.019-59.296 28.019zm-3.326-129.926c-25.214 0-40.786 19.729-43.667 41.669h84.177c0-22.492-15.24-41.669-40.51-41.669zm210.195.497h-50.54v129.429h-25.768V300.405h-49.875v-20.891h125.905v20.78l.278.111zm-198.667-75.547h18.785v18.735h-18.785v-18.735z" fill="#fff"/></g><defs><clipPath id="a"><path fill="#fff" d="M0 0h2052v508H0z"/></clipPath></defs></svg>